<svg width="191" height="176" viewBox="0 0 191 176" fill="none" xmlns="http://www.w3.org/2000/svg">
<path d="M152.8 140.8C142.199 140.8 133.7 148.632 133.7 158.4C133.7 163.068 135.712 167.544 139.294 170.845C142.876 174.146 147.734 176 152.8 176C157.866 176 162.724 174.146 166.306 170.845C169.888 167.544 171.9 163.068 171.9 158.4C171.9 153.732 169.888 149.256 166.306 145.955C162.724 142.654 157.866 140.8 152.8 140.8ZM0 0V17.6H19.1L53.48 84.392L40.492 105.952C39.0595 108.416 38.2 111.32 38.2 114.4C38.2 119.068 40.2123 123.544 43.7943 126.845C47.3762 130.146 52.2344 132 57.3 132H171.9V114.4H61.311C60.6778 114.4 60.0705 114.168 59.6228 113.756C59.175 113.343 58.9235 112.783 58.9235 112.2C58.9235 111.76 59.019 111.408 59.21 111.144L67.805 96.8H138.953C146.115 96.8 152.418 93.104 155.665 87.736L189.854 30.8C190.522 29.392 191 27.896 191 26.4C191 24.0661 189.994 21.8278 188.203 20.1775C186.412 18.5271 183.983 17.6 181.45 17.6H40.2055L31.2285 0M57.3 140.8C46.6995 140.8 38.2 148.632 38.2 158.4C38.2 163.068 40.2123 167.544 43.7943 170.845C47.3762 174.146 52.2344 176 57.3 176C62.3656 176 67.2238 174.146 70.8057 170.845C74.3877 167.544 76.4 163.068 76.4 158.4C76.4 153.732 74.3877 149.256 70.8057 145.955C67.2238 142.654 62.3656 140.8 57.3 140.8Z" fill="url(#paint0_linear_1_4)"/>
<defs>
<linearGradient id="paint0_linear_1_4" x1="-2.64012e-06" y1="-3" x2="204.652" y2="158.724" gradientUnits="userSpaceOnUse">
<stop offset="0.154932" stop-color="#FF7D7D"/>
<stop offset="0.577196" stop-color="#C50000"/>
<stop offset="1" stop-color="#890000"/>
</linearGradient>
</defs>
</svg>
